<!DOCTYPE svg PUBLIC "-//W3C//DTD SVG 1.1//EN" "http://www.w3.org/Graphics/SVG/1.1/DTD/svg11.dtd">
<!-- Uploaded to: SVG Repo, www.svgrepo.com, Transformed by: SVG Repo Mixer Tools -->
<svg width="256px" height="256px" viewBox="0 0 20 20" version="1.1" xmlns="http://www.w3.org/2000/svg" fill="#000000">
<g id="SVGRepo_bgCarrier" stroke-width="0"/>
<g id="SVGRepo_tracerCarrier" stroke-linecap="round" stroke-linejoin="round" stroke="#CCCCCC" stroke-width="0.12"/>
<g id="SVGRepo_iconCarrier"> <g id="layer1"> <path d="M 0 2 L 0 18 L 20 18 L 20 2 L 0 2 z M 1 3 L 19 3 L 19 5 L 1 5 L 1 3 z M 1 6 L 19 6 L 19 17 L 1 17 L 1 6 z M 3 8 L 3 11 L 17 11 L 17 8 L 3 8 z M 4 9 L 16 9 L 16 10 L 4 10 L 4 9 z M 3 12 L 3 15 L 17 15 L 17 12 L 3 12 z M 4 13 L 16 13 L 16 14 L 4 14 L 4 13 z " style="fill:#222222; fill-opacity:1; stroke:none; stroke-width:0px;"/> </g> </g>
</svg>